<svg width="374" height="457" viewBox="0 0 374 457" fill="none" xmlns="http://www.w3.org/2000/svg">
<path d="M7.61766 32.0541C15.932 15.1688 17.1245 14.1444 37.7473 6.13258C51.6904 0.719849 52.8684 0.792526 65.8945 7.86299C73.3716 11.9225 80.4066 17.9478 81.5265 21.2529C82.6465 24.558 88.1918 31.6804 93.8495 37.0827L104.136 46.9045L66.8223 84.7175L29.5091 122.53L18.1357 112.262C9.42623 104.396 7.21536 99.9382 8.69411 93.2277C9.75244 88.4067 8.26643 76.0827 5.38503 65.8422C0.488455 48.4135 0.629811 46.2504 7.61766 32.0541Z" fill="#6366F1"/>
<path d="M289.698 24.2604C289.698 22.1804 296.359 15.8713 304.5 10.2406L319.302 0L338.026 7.04624C348.323 10.9224 356.909 14.352 357.105 14.6704C357.3 14.9854 361.149 22.4331 365.658 31.2166C373.657 46.8042 373.712 47.6659 367.938 66.6347C364.683 77.3286 362.951 89.6319 364.092 93.9752C365.64 99.8586 363.266 104.506 354.785 112.2L343.397 122.53L306.127 84.5791L268.858 46.6311L279.278 37.3354C285.008 32.2237 289.698 26.3403 289.698 24.2604Z" fill="#6366F1"/>
<path d="M109.507 49.8532L146.142 42.3674C166.29 38.2525 186.04 35.4146 190.027 36.0618C194.014 36.709 211.954 39.9691 229.895 43.3122L262.515 49.386L301.122 87.6869C335.122 121.423 341.128 129.255 351.458 153.356L363.19 180.724L356.644 214.786C353.045 233.523 348.924 248.851 347.489 248.851C346.05 248.851 341.306 235.056 336.942 218.191L329.008 187.532L309.73 188.352C299.125 188.802 283.004 191.885 273.899 195.204C260.703 200.018 256.535 203.597 253.331 212.865C251.123 219.257 250.272 225.968 251.439 227.771C252.606 229.577 251.66 237.852 249.333 246.158C245.259 260.697 245.73 262.51 261.964 295.025C280.738 332.62 283.464 353.091 273.348 380.466C265.186 402.556 269.3 400.833 278.295 378.393C290.444 348.079 288.813 327.449 271.576 293.416C261.754 274.025 257.078 260.122 257.078 250.321C257.078 234.678 260.634 230.297 276.197 226.743C285.914 224.528 290.336 221.008 303.478 205.026C306.863 200.908 312.992 196.616 317.095 195.485C323.883 193.616 325.63 196.962 336.344 232.387C342.824 253.813 351.157 285.21 354.865 302.154L361.602 332.962L347.424 354.402C333.531 375.402 332.346 376.247 289.198 395.738C245.603 415.43 241.406 416.278 219.022 409.942C215.035 408.813 218.297 410.831 226.271 414.427C238.996 420.168 241.964 420.39 250.554 416.237C263.211 410.125 263.994 410.246 261.866 418.016C260.887 421.598 254.106 430.09 246.803 436.898C219.511 462.314 161.771 463.906 130.822 440.092C118.818 430.852 107.05 415.178 110.003 412.361C110.641 411.752 115.447 413.115 120.685 415.392C128.104 418.618 133.482 418.594 145.062 415.282C163.985 409.869 162.137 407.342 142.851 412.257C129.122 415.756 126.027 414.901 84.2412 396.022C41.176 376.569 39.8024 375.6 26.7509 355.409C13.9785 335.648 13.4928 333.793 15.8813 313.644C17.255 302.047 22.0863 281.555 26.6204 268.107C31.1509 254.661 37.8851 232.322 41.5892 218.465C46.5003 200.067 49.668 193.765 53.3214 195.104C56.0759 196.111 60.5303 196.938 63.2233 196.938C65.9162 196.938 69.1746 200.105 70.4612 203.977C73.9878 214.588 86.6224 224.331 101.979 228.279C115.56 231.771 115.726 232.024 115.726 249.062C115.726 262.285 112.345 272.727 101.229 293.841C89.1052 316.866 86.7747 324.643 86.9994 341.351C87.1661 353.644 89.9859 366.654 94.3315 375.171C98.2169 382.784 100.294 385.899 98.9418 382.092C97.5935 378.285 95.7596 364.944 94.8643 352.443C93.3203 330.896 94.096 328.103 109.735 298.801L126.234 267.885L126.455 293.841C126.85 339.538 128.738 344.535 154.801 368.817C171.071 383.975 177.693 392.551 176.497 396.918C175.098 402.027 176.953 403.203 186.402 403.203C195.775 403.203 197.703 402.006 196.34 397.033C195.181 392.797 202.06 384.023 218.275 369.066C244.197 345.151 248.22 334.727 245.302 299.032C244.045 283.642 243.816 284.327 243.233 305.245L242.581 328.764L229.881 326.487C221.008 324.899 214.488 325.895 208.261 329.792C196.928 336.884 180.107 336.915 165.848 329.872C158.52 326.255 150.532 325.127 142.471 326.57L130.224 328.764V293.886C130.224 270.398 128.412 254.869 124.675 246.328C121.62 239.351 120.036 231.377 121.149 228.605C122.261 225.836 121.42 218.496 119.275 212.294C114.483 198.426 94.8317 189.888 64.3614 188.442L43.6877 187.456L35.4857 219.942C30.977 237.811 26.2181 250.453 24.9097 248.044C23.6049 245.632 19.6217 229.615 16.0553 212.45L9.57847 181.24L22.5937 152.557C33.7822 127.909 40.8136 118.665 72.5597 86.8632L109.507 49.8532Z" fill="#6366F1"/>
<path d="M147.44 346.401C141.311 347.214 138.999 345.549 138.125 339.697C137.121 332.942 138.56 331.931 148.998 332.056C155.617 332.135 166.722 335.091 173.673 338.628C186.014 344.899 186.638 344.895 199.805 338.482C207.225 334.866 218.254 331.91 224.314 331.91C233.672 331.91 235.332 333.222 235.332 340.628C235.332 348.2 234.139 349.062 226.271 347.176C218.214 345.245 217.21 346.082 217.21 354.748C217.21 364.397 194.898 390.744 186.725 390.744C184.724 390.744 176.899 384.979 169.339 377.929C159.763 369 155.595 362.113 155.595 355.215C155.595 346.937 154.261 345.494 147.44 346.401Z" fill="#6366F1"/>
</svg>
